<svg xmlns="http://www.w3.org/2000/svg" width="16" height="16" viewBox="0 0 36.447 36.447" enable-background="new 0 0 36.447 36.447"><g fill="#e64423"><path d="M30.224 3.948h-1.098v-1.198c0-1.517-1.197-2.75-2.67-2.75-1.474 0-2.67 1.233-2.67 2.75v1.197h-2.74v-1.197c0-1.517-1.197-2.75-2.67-2.75-1.473 0-2.67 1.233-2.67 2.75v1.197h-2.74v-1.197c0-1.517-1.197-2.75-2.67-2.75-1.473 0-2.67 1.233-2.67 2.75v1.197h-1.402c-2.343 0-4.25 1.907-4.25 4.25v24c0 2.343 1.907 4.25 4.25 4.25h24c2.344 0 4.25-1.907 4.25-4.25v-24c0-2.342-1.907-4.249-4.25-4.249zm-4.938-1.198c0-.689.525-1.25 1.17-1.25.646 0 1.17.561 1.17 1.25v4.896c0 .689-.524 1.25-1.17 1.25-.645 0-1.17-.561-1.17-1.25v-4.896zm-8.08 0c0-.689.525-1.25 1.17-1.25s1.17.561 1.17 1.25v4.896c0 .689-.525 1.25-1.17 1.25s-1.17-.561-1.17-1.25v-4.896zm-8.081 0c0-.689.525-1.25 1.17-1.25s1.17.561 1.17 1.25v4.896c0 .689-.525 1.25-1.17 1.25s-1.17-.561-1.17-1.25v-4.896zm22.849 29.448c0 .965-.785 1.75-1.75 1.75h-24c-.965 0-1.75-.785-1.75-1.75v-22h27.5v22zM6.724 14.626h4.595v4.089h-4.595zM12.857 14.626h4.596v4.089h-4.596zM18.995 14.626h4.595v4.089h-4.595zM25.128 14.626h4.596v4.089h-4.596zM6.724 20.084h4.595v4.086h-4.595zM12.857 20.084h4.596v4.086h-4.596zM18.995 20.084h4.595v4.086h-4.595zM25.128 20.084h4.596v4.086h-4.596zM6.724 25.54h4.595v4.086h-4.595zM12.857 25.54h4.596v4.086h-4.596zM18.995 25.54h4.595v4.086h-4.595zM25.128 25.54h4.596v4.086h-4.596z"/></g></svg>