<svg xmlns="http://www.w3.org/2000/svg" viewBox="0 0 267.978 267.978" enable-background="new 0 0 267.978 267.978"><path d="M257.028 29.582l-19.141-19.141c-12.181-13.921-34.802-13.921-48.723 0l-22.621 22.621c0 .766-.4 1.584-.766 2.506l-152.366 152.365-1.74 5.22-10.441 66.125c-1.74 1.74 0 5.22 1.74 6.96l6.96 1.74 66.124-8.701c1.74 0 3.48 0 5.22-1.74l153.13-153.13c0-1.27.783-2.802 1.27-4.751l21.351-21.351c13.924-12.18 13.924-34.802.003-48.723zm-166.181 192.284l-43.503-43.503 125.289-125.289 43.503 43.503-125.289 125.289zm-18.272 18.271l-52.204 8.701 8.701-52.204 6.091-6.091 43.503 43.503-6.091 6.091zm174.012-174.012l-17.401 17.401-43.503-43.503 17.401-17.401c6.96-6.96 17.401-6.96 24.362 0l19.141 19.141c6.961 6.96 6.961 17.401 0 24.362z"/></svg>