<svg xmlns="http://www.w3.org/2000/svg" width="16" height="16" viewBox="0 0 774.266 774.266"><path d="M640.35 91.169h-103.379v-67.178c0-13.522-10.907-23.991-24.428-23.991-1.312 0-2.187.438-2.614.875-.438-.437-1.313-.875-1.75-.875h-246.45700000000002c-13.521 0-23.99 10.469-23.99 23.991v67.179h-103.816c-29.667 0-52.783 23.116-52.783 52.783v86.368h45.803v491.6c0 29.668 22.679 52.346 52.346 52.346h415.703c29.667 0 52.782-22.678 52.782-52.346v-491.6h45.366v-86.368c0-29.667-23.125-52.784-52.783-52.784zm-354.637-43.188h202.84v43.188h-202.84v-43.188zm313.636 673.941c0 3.061-1.312 4.363-4.364 4.363h-415.703c-3.052 0-4.364-1.303-4.364-4.363v-491.602h424.431v491.602zm45.366-539.583h-515.164v-38.387c0-3.053 1.312-4.802 4.364-4.802h506.435c3.053 0 4.365 1.749 4.365 4.802v38.387zM475.031 286.593h48.418v396.942h-48.418zM363.361 286.593h48.418v396.942h-48.418zM251.69 286.593h48.418v396.942h-48.418z"/></svg>